#!OML:ASF E:/inclinewalkrobotboard/Project1/Captureday1/Session1/subject1.ASF
:FULLY-SPECIFIED
:DEGREES
88
root 0 0 0 1.1079516688747069 -3.740190886727161 1.802829709258369
lowerback 11.995320787066301 0.8620097360425306 -0.07692135289307142
upperback -4.182507564554518 1.091038515689852 -0.5396226161577448
thorax -11.297354417000959 0.5003904872738086 -0.774632814888932
lowerneck -5.92206763712519 1.4701143537246497 4.520640597291104
upperneck 18.04082279593689 2.9154530433367962 -8.266556855856567
head 6.615808097169328 1.061714784600254 -3.1943824235915415
rclavicle -1.2350869102404968E-15 3.992098752232614E-16
rhumerus 19.64136520888712 14.047394678032983 -47.80817359104522
rradius 72.07058962018125
rwrist 27.21873681693752
rhand -34.88337690527646 -57.52903236638902
rfingers 7.125020000000043
rthumb -8.02488223703789 -87.30858840108979
lclavicle 1.0716261252752228E-15 -2.7156363174012673E-15
lhumerus 20.59949547838628 -12.31359482549876 45.61698956110815
lradius 69.53488536922217
lwrist -22.203873314675032
lhand -44.75681543609944 -70.15031382250372
lfingers 7.125020000000015
lthumb -17.564612058951678 -41.0436982291576
rfemur -25.19115620238282 -2.1624443365084507 16.896485568418292
rtibia 54.198123448270806
rfoot -28.226906108351866 -16.764580966866674
rtoes -17.854860489585537
lfemur -27.442827394668452 2.482322394940641 -18.26493633078641
ltibia 53.66165828255131
lfoot -31.885987661850596 -3.252925408004004
ltoes -19.563718402402387
89
root 0 0 0 1.1079173579924508 -3.7402284641630477 1.802817995219319
lowerback 11.995319137696544 0.8620073371543865 -0.07690648321887097
upperback -4.182487763400175 1.0910384436685288 -0.5396121969845618
thorax -11.297331097755972 0.5003899772345385 -0.7746300209610477
lowerneck -5.921975903732267 1.4701002858928733 4.520664696367875
upperneck 18.04075081138199 2.9154378387148103 -8.266612537188573
head 6.615768944708465 1.061707970670522 -3.1944052132045573
rclavicle -1.2346461440049474E-15 3.987260455857605E-16
rhumerus 19.64142769074042 14.047462684383351 -47.80814129773133
rradius 72.07060592119193
rwrist 27.218708418853296
rhand -34.88323294456889 -57.52881770346916
rfingers 7.125020000000043
rthumb -8.024742993369964 -87.30837207443213
lclavicle 1.0722673299229987E-15 -2.716258158209611E-15
lhumerus 20.599514542975882 -12.313680972222793 45.616873857789656
lradius 69.53492595629665
lwrist -22.20389928903224
lhand -44.756747100083416 -70.14991662028844
lfingers 7.125020000000015
lthumb -17.564546146825688 -41.043291795615275
rfemur -25.191158155014712 -2.162444803496059 16.89648910184203
rtibia 54.19812689404358
rfoot -28.226923813410398 -16.764580344408518
rtoes -17.854862730166644
lfemur -27.44280022650458 2.4823393896318864 -18.264930658437237
ltibia 53.66164126972227
lfoot -31.88600705880114 -3.2529094870268014
ltoes -19.563847681866473
90
root 0 0 0 1.1078991585553268 -3.7403792672048466 1.8027766075402645
lowerback 11.99507264545845 0.8619719804307511 -0.07692447252719095
upperback -4.1826550363075725 1.090984208449958 -0.5395991171914266
thorax -11.297374401169042 0.5003658658262218 -0.7745930291605742
lowerneck -5.922078546227205 1.470239183092962 4.520569272198416
upperneck 18.04138431324456 2.9156527117786157 -8.26640525387964
head 6.615987357357026 1.0618030697792928 -3.1943097412076433
rclavicle -1.2504553022438757E-15 4.1766778889414505E-16
rhumerus 19.64208754767327 14.047417158761098 -47.80786013029745
rradius 72.07168374665446
rwrist 27.219669207814047
rhand -34.88487380764418 -57.532479879492556
rfingers 7.125020000000043
rthumb -8.026277618777886 -87.31209525311797
lclavicle 1.0373850393061862E-15 -2.6922671436507153E-15
lhumerus 20.599754944714388 -12.312245441319464 45.61958539923946
lradius 69.53457367148174
lwrist -22.20312093842318
lhand -44.75893564293876 -70.16117195978816
lfingers 7.125020000000015
lthumb -17.56650341516207 -41.05509891906024
rfemur -25.190046968260148 -2.1624727896089198 16.895616000251927
rtibia 54.19657120109281
rfoot -28.225339387692543 -16.763847636395337
rtoes -17.856336348495446
lfemur -27.441173649246277 2.481703725111353 -18.264026641368442
ltibia 53.659055040617254
lfoot -31.882806973170347 -3.252576123071614
ltoes -19.56729147306041
91
root 0 0 0 1.1080199838569618 -3.740155541885107 1.8028393302042645
lowerback 11.995270376573558 0.8620089988120594 -0.07694904887618648
upperback -4.182584555692198 1.0910305943646423 -0.5396402732246675
thorax -11.297410729479433 0.5003880256742846 -0.7746334252959264
lowerneck -5.922283136516349 1.470171284250616 4.520569068154003
upperneck 18.04111004869724 2.9155283538769634 -8.266396659408015
head 6.615937533090226 1.0617480855686976 -3.1943147586547673
rclavicle -1.2283694794141568E-15 3.966713821985414E-16
rhumerus 19.641581999358074 14.047574285573809 -47.80806232852039
rradius 72.07070553403355
rwrist 27.218725434965922
rhand -34.883291515856 -57.52889995357998
rfingers 7.125020000000043
rthumb -8.024806297134802 -87.30842351921655
lclavicle 1.0817244056725615E-15 -2.718888221003517E-15
lhumerus 20.599174950561746 -12.313209384461345 45.61718304723388
lradius 69.534757637077
lwrist -22.203907587294363
lhand -44.756863164839146 -70.15142414090553
lfingers 7.125020000000015
lthumb -17.56468617385802 -41.04480319031812
rfemur -25.190918408901492 -2.1624284606014434 16.896491749826108
rtibia 54.198227196536024
rfoot -28.226721483899297 -16.764421535848776
rtoes -17.85513117322154
lfemur -27.442718674839885 2.4822689045356903 -18.26487857746096
ltibia 53.66144362908644
lfoot -31.88572051635099 -3.2530596379458347
ltoes -19.564018798229494
92
root 0 0 0 1.1079876259545882 -3.7401700212967146 1.8028352555555442
lowerback 11.995297985971478 0.8620098993727093 -0.07693609395920131
upperback -4.182546056690711 1.091035082885466 -0.5396321360626744
thorax -11.297384054933316 0.500389541666123 -0.7746334919234397
lowerneck -5.922183033787398 1.4701432998725215 4.520604185400252
upperneck 18.040967557937236 2.9154909689747814 -8.26647460877741
head 6.615874482999361 1.061731505142915 -3.1943477221208805
rclavicle -1.233868263377908E-15 3.991145872908836E-16
rhumerus 19.641350107512856 14.047374345306334 -47.808166951173575
rradius 72.07055663731417
rwrist 27.218714422394147
rhand -34.88332085039432 -57.52888869414896
rfingers 7.125020000000043
rthumb -8.0248242412184 -87.30844101939991
lclavicle 1.0735754816771562E-15 -2.715710672187336E-15
lhumerus 20.599415937397517 -12.313568692360132 45.61703943268266
lradius 69.53484481136054
lwrist -22.203849941821318
lhand -44.75679087373021 -70.15030937463314
lfingers 7.125020000000015
lthumb -17.564598678363783 -41.043696788595845
rfemur -25.191178557485358 -2.1624500938307802 16.896467906813335
rtibia 54.19814714866245
rfoot -28.226824310795617 -16.764542078385187
rtoes -17.854860659482554
lfemur -27.44275742412779 2.482338203018525 -18.264947837534347
ltibia 53.66169158003302
lfoot -31.885875503626398 -3.2530030564127075
ltoes -19.563660229098584
93
root 0 0 0 1.1079514892694104 -3.7401911101450267 1.8028296392677052
lowerback 11.995320740615622 0.862009718788423 -0.07692127517388056
upperback -4.182507489926482 1.09103850829388 -0.539622559694823
thorax -11.297354305044923 0.5003904815494392 -0.774632796019701
lowerneck -5.9220671838242644 1.4701143029299817 4.520640702550407
upperneck 18.04082253012065 2.915452998830476 -8.266557105884658
head 6.615807932165918 1.0617147644515423 -3.1943825240546855
rclavicle -1.235085050292119E-15 3.992097135012615E-16
rhumerus 19.64136574326454 14.04739518796895 -47.808173270915766
rradius 72.07058990557869
rwrist 27.218736750204137
rhand -34.883376031613054 -57.529031296140275
rfingers 7.125020000000043
rthumb -8.024881383308374 -87.30858729293584
lclavicle 1.0716289706245702E-15 -2.7156362192324572E-15
lhumerus 20.599495682604484 -12.313595376500052 45.61698902920681
lradius 69.53488569352939
lwrist -22.20387337660139
lhand -44.75681508912029 -70.15031174569093
lfingers 7.125020000000015
lthumb -17.564611736850093 -41.043696136323845
rfemur -25.19115614251937 -2.1624443247354526 16.896485600455257
rtibia 54.19812350234141
rfoot -28.22690620424544 -16.764580943762795
rtoes -17.854860497423807
lfemur -27.44282713735255 2.48232255927916 -18.26493627997238
ltibia 53.661658254672446
lfoot -31.88598768591067 -3.2529252849054053
ltoes -19.563719384022797
94
root 0 0 0 1.107913496469387 -3.7403623344499906 1.8027819080756111
lowerback 11.995075128879604 0.8619731982298422 -0.07693069280551612
upperback -4.182661917354626 1.0909845624250156 -0.5396035478662267
thorax -11.297383646509276 0.5003662195020175 -0.7745943752816533
lowerneck -5.922115589951256 1.4702439771365485 4.520560203206791
upperneck 18.04140910150402 2.9156574031862394 -8.266383977488097
head 6.61600181122537 1.061805181204023 -3.194301119999184
rclavicle -1.250538333449222E-15 4.1770613051325997E-16
rhumerus 19.642055008872 14.047386166995533 -47.80788218150782
rradius 72.07166846926832
rwrist 27.219673220785868
rhand -34.884934365504 -57.532556245076236
rfingers 7.125020000000043
rthumb -8.026336613438474 -87.3121735046904
lclavicle 1.0372607405334815E-15 -2.692230515030883E-15
lhumerus 20.599739815353676 -12.312207079369593 45.619624991045974
lradius 69.53455174750148
lwrist -22.203114802551166
lhand -44.758959098335865 -70.16131771518045
lfingers 7.125020000000015
lthumb -17.566525543352082 -41.05524608513384
rfemur -25.190050088141987 -2.1624732123179635 16.89561410785202
rtibia 54.19656722018429
rfoot -28.225333622696585 -16.763849178412716
rtoes -17.85633572817593
lfemur -27.441189845714558 2.481694079159717 -18.264030125102117
ltibia 53.65905827787909
lfoot -31.882804069379326 -3.2525837236797273
ltoes -19.56722610080499
95
root 0 0 0 1.1080277395366962 -3.7401462266683407 1.8028422425574342
lowerback 11.995271948888336 0.8620096887225112 -0.0769524069277257
upperback -4.182588091818023 1.0910308328828502 -0.5396426791042803
thorax -11.297415657030124 0.500388237677541 -0.7746341807614177
lowerneck -5.922303018054366 1.4701737329381719 4.520564310917054
upperneck 18.041122758767596 2.9155306714956177 -8.266385431177229
head 6.615945102418285 1.061749129124931 -3.1943102231205565
rclavicle -1.2284160235816335E-15 3.966711587577832E-16
rhumerus 19.641562203918028 14.04755573115196 -47.808075286962975
rradius 72.07069477663794
rwrist 27.218726813036994
rhand -34.88332419720119 -57.52893868004638
rfingers 7.125020000000043
rthumb -8.024838231667859 -87.30846353590903
lclavicle 1.081656256303239E-15 -2.7189013654368087E-15
lhumerus 20.59916588738937 -12.313188503551354 45.61720288448085
lradius 69.53474494143181
lwrist -22.20390521478373
lhand -44.75687520761301 -70.15149948854015
lfingers 7.125020000000015
lthumb -17.564697389599115 -41.04487906893602
rfemur -25.190921224469065 -2.162428922845894 16.896490225371743
rtibia 54.198225204041755
rfoot -28.226717463493102 -16.764422378087435
rtoes -17.855130798067187
lfemur -27.44272814570568 2.482263030313006 -18.26488092583911
ltibia 53.66144487332678
lfoot -31.885719172304686 -3.253064606340794
ltoes -19.563980176431134
